<svg width="800" height="800" viewBox="0 0 800 800" fill="none" xmlns="http://www.w3.org/2000/svg">
<path d="M100 212.866C100 196.717 111.513 183.626 125.714 183.626L214.522 183.611C232.167 183.102 247.734 170.344 253.738 151.471C253.896 150.974 254.077 150.362 254.728 148.141L258.555 135.085C260.897 127.08 262.937 120.106 265.792 113.872C277.07 89.2452 297.936 72.1439 322.049 67.7656C328.152 66.6572 334.617 66.6619 342.037 66.6672H457.97C465.39 66.6619 471.853 66.6572 477.957 67.7656C502.07 72.1439 522.937 89.2452 534.213 113.872C537.07 120.106 539.11 127.08 541.45 135.085L545.277 148.141C545.927 150.362 546.11 150.974 546.267 151.471C552.273 170.344 570.927 183.118 588.57 183.626H674.287C688.487 183.626 700 196.717 700 212.866C700 229.014 688.487 242.105 674.287 242.105H125.714C111.513 242.105 100 229.014 100 212.866Z" fill="#E74C3C"/>
<path fill-rule="evenodd" clip-rule="evenodd" d="M386.52 733.337H413.48C506.236 733.337 552.617 733.337 582.77 703.807C612.927 674.277 616.01 625.837 622.18 528.953L631.07 389.357C634.42 336.79 636.093 310.508 620.963 293.853C605.837 277.197 580.29 277.197 529.2 277.197H270.801C219.709 277.197 194.162 277.197 179.035 293.853C163.907 310.508 165.581 336.79 168.929 389.357L177.819 528.953C183.99 625.837 187.075 674.277 217.229 703.807C247.384 733.337 293.763 733.337 386.52 733.337ZM341.543 406.287C340.17 391.827 327.917 381.273 314.179 382.72C300.44 384.167 290.417 397.063 291.791 411.523L308.457 586.963C309.831 601.423 322.082 611.977 335.82 610.53C349.56 609.083 359.583 596.187 358.21 581.727L341.543 406.287ZM485.82 382.72C499.56 384.167 509.583 397.063 508.21 411.523L491.543 586.963C490.17 601.423 477.916 611.977 464.18 610.53C450.44 609.083 440.417 596.187 441.79 581.727L458.457 406.287C459.83 391.827 472.083 381.273 485.82 382.72Z" fill="#E74C3C"/>
</svg>
